# xmcd CD database file
#
# Track frame offsets:
#	150
#	20391
#	40230
#	47067
#	65387
#	83668
#	102702
#	128795
#	146968
#	165009
#	185938
#	204349
#	227184
#	245164
#	268679
#	295826
#
# Disc length: 4287 seconds
#
# Revision: 1
# Processed by: cddbd v1.5.2PL0 Copyright (c) Steve Scherf et al.
# Submitted via: CDex 1.70beta3
#
DISCID=ec10bd10
DTITLE=JAM Project - THE MONSTERS ～JAM Project BEST COLLECTION Ⅸ～
DYEAR=2012
DGENRE=Anime
TTITLE0=THE MONSTERS
TTITLE1=NOAH
TTITLE2=GARO -MAKAISENKI- with JAM Project
TTITLE3=我が名は牙狼
TTITLE4=Metamorphose
TTITLE5=LIMIT BREAK
TTITLE6=The advent of Genesis
TTITLE7=覇王の剣
TTITLE8=PREDESTINATION
TTITLE9=鋼のレジスタンス
TTITLE10=Believe in my existence
TTITLE11=願い
TTITLE12=PROMISE ～Without you～
TTITLE13=覇
TTITLE14=Believe ～永遠のLink～
TTITLE15=Glorious Days ～10th anniversary of Ragnarok～
EXTD=YEAR: 2012
EXTT0=
EXTT1=
EXTT2=
EXTT3=
EXTT4=
EXTT5=
EXTT6=
EXTT7=
EXTT8=
EXTT9=
EXTT10=
EXTT11=
EXTT12=
EXTT13=
EXTT14=
EXTT15=
PLAYORDER=
